<?xml version="1.0" encoding="UTF-8"?>
<svg id="Layer_1" data-name="Layer 1" xmlns="http://www.w3.org/2000/svg" viewBox="0 0 326.94 100.56">
  <defs>
    <style>
      .cls-1 {
        fill: #52a146;
      }

      .cls-1, .cls-2, .cls-3, .cls-4 {
        stroke-width: 0px;
      }

      .cls-2 {
        fill: #231f20;
      }

      .cls-3 {
        fill: #fff;
      }

      .cls-4 {
        fill: #ef7390;
      }
    </style>
  </defs>
  <g>
    <path class="cls-2" d="M102.63,38.13c-1.56,0-2.99-.39-4.29-1.18-1.28-.79-2.3-1.85-3.05-3.18-.75-1.33-1.13-2.81-1.13-4.44l.04-13.49c0-1.6.37-3.05,1.1-4.35.73-1.31,1.74-2.36,3.03-3.16,1.29-.8,2.72-1.19,4.3-1.19s3.03.39,4.29,1.16c1.27.77,2.28,1.82,3.03,3.14.75,1.32,1.13,2.78,1.13,4.4v1.98c0,.11-.06.17-.17.17h-4.86c-.11,0-.17-.06-.17-.17v-1.98c0-.96-.31-1.78-.93-2.47-.62-.69-1.39-1.03-2.32-1.03-1.03,0-1.82.35-2.36,1.06-.55.7-.82,1.52-.82,2.45v13.49c0,1.06.31,1.92.93,2.59.62.67,1.37,1,2.26,1s1.7-.37,2.32-1.11c.62-.74.93-1.57.93-2.48v-2.01c0-.11.06-.17.17-.17h4.9c.11,0,.17.06.17.17v2.01c0,1.62-.38,3.1-1.14,4.43-.77,1.32-1.79,2.38-3.06,3.18s-2.7,1.19-4.29,1.19Z"/>
    <path class="cls-2" d="M128.39,37.71h-13.98c-.11,0-.17-.07-.17-.21l.04-29.67c0-.14.07-.21.21-.21h4.81c.14,0,.21.07.21.21l-.04,24.56h8.91c.14,0,.21.07.21.21v4.9c0,.14-.07.21-.21.21Z"/>
    <path class="cls-2" d="M145.55,37.71h-13.98c-.11,0-.17-.07-.17-.21l.04-29.71c0-.11.06-.17.17-.17h13.89c.11,0,.17.07.17.21v4.84c0,.11-.06.17-.17.17h-8.87v6.76h8.87c.11,0,.17.06.17.17l.04,4.9c0,.11-.06.17-.17.17h-8.91v7.56h8.91c.11,0,.17.07.17.21v4.94c0,.11-.06.17-.17.17Z"/>
    <path class="cls-2" d="M148.11,37.5l5.36-29.71c.03-.11.1-.17.21-.17h6.27c.11,0,.18.06.21.17l5.15,29.71c.01.14-.04.21-.17.21h-4.79c-.14,0-.22-.07-.23-.21l-.46-3.17h-5.89l-.46,3.17c-.01.14-.08.21-.21.21h-4.81c-.11,0-.17-.07-.17-.21ZM156.58,17.56l-1.94,12.14h4.16l-1.77-12.14-.25-1.6-.19,1.6Z"/>
    <path class="cls-2" d="M172.73,37.71h-4.33c-.23,0-.34-.1-.34-.3l-.04-29.46c0-.23.11-.34.34-.34h3.91l7.31,17.04-.21-16.7c0-.23.13-.34.38-.34h4.29c.17,0,.25.11.25.34l.04,29.5c0,.17-.07.25-.21.25h-3.8l-7.5-15.92.32,15.58c0,.23-.13.34-.4.34Z"/>
    <path class="cls-2" d="M207.27,38.13c-1.56,0-2.99-.39-4.29-1.18-1.28-.79-2.3-1.85-3.05-3.18-.75-1.33-1.13-2.81-1.13-4.44l.04-13.49c0-1.6.37-3.05,1.1-4.35.73-1.31,1.74-2.36,3.03-3.16,1.29-.8,2.72-1.19,4.3-1.19s3.03.39,4.29,1.16c1.27.77,2.28,1.82,3.03,3.14.75,1.32,1.13,2.78,1.13,4.4v1.98c0,.11-.06.17-.17.17h-4.86c-.11,0-.17-.06-.17-.17v-1.98c0-.96-.31-1.78-.93-2.47-.62-.69-1.39-1.03-2.32-1.03-1.03,0-1.82.35-2.36,1.06-.55.7-.82,1.52-.82,2.45v13.49c0,1.06.31,1.92.93,2.59.62.67,1.37,1,2.26,1s1.7-.37,2.32-1.11c.62-.74.93-1.57.93-2.48v-2.01c0-.11.06-.17.17-.17h4.9c.11,0,.17.06.17.17v2.01c0,1.62-.38,3.1-1.14,4.43-.77,1.32-1.79,2.38-3.06,3.18s-2.7,1.19-4.29,1.19Z"/>
    <path class="cls-2" d="M223.96,37.71h-4.9c-.11,0-.17-.07-.17-.21l.08-29.71c0-.11.06-.17.17-.17h8.74c1.56,0,3,.38,4.31,1.14,1.31.76,2.35,1.78,3.14,3.06.78,1.28,1.17,2.73,1.17,4.35,0,1.06-.16,2.01-.49,2.87-.32.86-.7,1.58-1.13,2.17s-.82,1.03-1.17,1.31c1.56,1.73,2.34,3.77,2.34,6.1l.04,8.87c0,.14-.07.21-.21.21h-4.9c-.11,0-.17-.04-.17-.13v-8.95c0-1.04-.37-1.94-1.1-2.7s-1.63-1.14-2.7-1.14h-2.85l-.04,12.71c0,.14-.06.21-.17.21ZM227.88,12.79h-3.72v6.8h3.72c.89,0,1.68-.33,2.38-.99.7-.66,1.05-1.47,1.05-2.43s-.34-1.71-1.01-2.38c-.68-.67-1.48-1-2.41-1Z"/>
    <path class="cls-2" d="M247.27,38.13c-1.52,0-2.93-.39-4.22-1.18s-2.33-1.85-3.09-3.18c-.77-1.33-1.15-2.78-1.15-4.36l.08-21.62c0-.11.06-.17.17-.17h4.86c.11,0,.17.06.17.17v21.62c0,.97.31,1.8.93,2.48.62.68,1.37,1.02,2.26,1.02s1.7-.34,2.32-1.02c.62-.68.93-1.51.93-2.48V7.79c0-.11.06-.17.17-.17h4.86c.11,0,.17.06.17.17l.08,21.62c0,1.59-.38,3.05-1.14,4.39-.77,1.32-1.8,2.38-3.08,3.16-1.28.78-2.72,1.17-4.31,1.17Z"/>
    <path class="cls-2" d="M264.26,37.71h-4.9c-.11,0-.17-.07-.17-.21l.08-29.71c0-.11.06-.17.17-.17h5.28c.11,0,.21.06.3.17l3.95,5.7,3.93-5.7c.08-.11.19-.17.32-.17h5.3c.13,0,.19.06.19.17l.08,29.71c0,.14-.06.21-.17.21h-4.9c-.11,0-.17-.07-.17-.21l-.04-22.07-4.54,6.59-4.5-6.59-.04,22.07c0,.14-.06.21-.17.21Z"/>
    <path class="cls-2" d="M290.32,37.71h-7.75c-.11,0-.17-.07-.17-.21l.08-29.71c0-.11.06-.17.17-.17h8.32c1.62,0,3.09.39,4.41,1.18,1.29.79,2.31,1.83,3.06,3.14.75,1.3,1.12,2.71,1.12,4.23,0,1.24-.28,2.39-.84,3.46-.56,1.07-1.23,1.94-2.01,2.6.83.83,1.48,1.79,1.94,2.89.46,1.1.7,2.25.7,3.46,0,1.68-.4,3.2-1.2,4.58-.82,1.38-1.91,2.48-3.27,3.3-1.37.82-2.89,1.24-4.56,1.24ZM290.32,24.79h-2.64l-.04,7.64h2.68c1.04,0,1.94-.38,2.68-1.14s1.12-1.66,1.12-2.7-.37-1.94-1.12-2.68c-.75-.75-1.64-1.12-2.68-1.12ZM290.98,12.75h-3.29v6.8h3.29c1,0,1.81-.36,2.43-1.07.62-.71.93-1.48.93-2.31,0-.91-.33-1.71-.99-2.4-.66-.68-1.45-1.02-2.36-1.02Z"/>
    <path class="cls-2" d="M309.81,38.13c-1.53,0-2.95-.39-4.24-1.18-1.28-.79-2.3-1.84-3.07-3.16-.77-1.32-1.15-2.76-1.15-4.34v-1.98c0-.15.07-.23.21-.23h4.86c.11,0,.17.08.17.23v1.98c0,.94.32,1.76.95,2.44.63.68,1.39,1.02,2.28,1.02s1.67-.35,2.3-1.05c.63-.7.95-1.5.95-2.42,0-1.06-.69-1.98-2.07-2.77-.23-.14-.52-.31-.88-.52-.36-.2-.79-.44-1.28-.71-.49-.27-.97-.53-1.44-.79-.46-.26-.92-.51-1.35-.75-1.58-.93-2.75-2.09-3.52-3.49-.77-1.4-1.15-2.97-1.15-4.72,0-1.6.39-3.05,1.18-4.35.79-1.28,1.82-2.3,3.09-3.05,1.27-.75,2.66-1.13,4.15-1.13s2.94.38,4.22,1.14c1.28.77,2.3,1.8,3.07,3.08.77,1.28,1.15,2.72,1.15,4.31v3.55c0,.11-.06.17-.17.17h-4.86c-.11,0-.17-.06-.17-.17l-.04-3.55c0-1.01-.32-1.84-.95-2.47-.63-.63-1.39-.95-2.26-.95s-1.65.34-2.28,1.01-.95,1.48-.95,2.41.2,1.73.6,2.36c.4.63,1.14,1.24,2.21,1.82.11.06.37.2.78.42.41.23.86.48,1.36.75s.95.52,1.36.74c.41.22.65.35.74.39,1.44.8,2.57,1.79,3.41,2.96.84,1.17,1.26,2.6,1.26,4.31s-.38,3.12-1.14,4.43c-.77,1.31-1.8,2.34-3.08,3.1-1.28.76-2.7,1.14-4.27,1.14Z"/>
  </g>
  <g>
    <path class="cls-2" d="M105.69,91.8c-2.33,0-4.46-.59-6.38-1.76-1.91-1.17-3.42-2.75-4.54-4.73-1.12-1.98-1.68-4.19-1.68-6.62l.06-20.1c0-2.39.54-4.55,1.64-6.48,1.09-1.95,2.59-3.52,4.51-4.7,1.92-1.18,4.05-1.78,6.4-1.78s4.52.58,6.38,1.73c1.89,1.15,3.39,2.71,4.51,4.67,1.12,1.96,1.68,4.15,1.68,6.56v2.96c0,.17-.08.25-.25.25h-7.23c-.17,0-.25-.08-.25-.25v-2.96c0-1.43-.46-2.65-1.38-3.68-.92-1.03-2.08-1.54-3.46-1.54-1.53,0-2.7.52-3.52,1.57-.82,1.05-1.23,2.26-1.23,3.65v20.1c0,1.57.46,2.86,1.38,3.85.92,1,2.04,1.49,3.37,1.49s2.54-.55,3.46-1.65c.92-1.1,1.38-2.33,1.38-3.7v-2.99c0-.17.08-.25.25-.25h7.3c.17,0,.25.08.25.25v2.99c0,2.41-.57,4.61-1.7,6.6-1.15,1.97-2.67,3.55-4.56,4.73-1.89,1.18-4.02,1.78-6.38,1.78Z"/>
    <path class="cls-2" d="M134.84,91.8c-2.26,0-4.36-.59-6.29-1.76-1.93-1.17-3.47-2.75-4.61-4.73-1.14-1.98-1.71-4.15-1.71-6.49l.13-32.2c0-.17.08-.25.25-.25h7.23c.17,0,.25.08.25.25v32.2c0,1.45.46,2.68,1.38,3.7.92,1.02,2.04,1.53,3.37,1.53s2.54-.51,3.46-1.53c.92-1.02,1.38-2.25,1.38-3.7v-32.2c0-.17.08-.25.25-.25h7.23c.17,0,.25.08.25.25l.13,32.2c0,2.37-.57,4.55-1.7,6.54-1.15,1.97-2.68,3.54-4.59,4.7-1.91,1.16-4.05,1.75-6.42,1.75Z"/>
    <path class="cls-2" d="M160.16,91.17h-7.23c-.21,0-.31-.1-.31-.31l.13-44.25c0-.17.08-.25.25-.25h12.39c3.94,0,7.06,1.2,9.36,3.6,2.3,2.4,3.44,5.67,3.44,9.8,0,3.02-.6,5.65-1.79,7.89-1.22,2.22-2.79,3.94-4.72,5.16-1.93,1.22-4.03,1.82-6.29,1.82h-4.91v16.23c0,.21-.11.31-.31.31ZM165.38,53.99l-4.91.06v12.77h4.91c1.36,0,2.55-.65,3.55-1.97,1.01-1.31,1.51-3.01,1.51-5.11,0-1.68-.45-3.06-1.35-4.14-.9-1.08-2.14-1.62-3.71-1.62Z"/>
    <path class="cls-2" d="M193.87,91.8c-2.33,0-4.46-.59-6.38-1.76-1.91-1.17-3.42-2.75-4.54-4.73-1.12-1.98-1.68-4.19-1.68-6.62l.06-20.1c0-2.39.54-4.55,1.64-6.48,1.09-1.95,2.59-3.52,4.51-4.7,1.92-1.18,4.05-1.78,6.4-1.78s4.52.58,6.38,1.73c1.89,1.15,3.39,2.71,4.51,4.67,1.12,1.96,1.68,4.15,1.68,6.56v2.96c0,.17-.08.25-.25.25h-7.23c-.17,0-.25-.08-.25-.25v-2.96c0-1.43-.46-2.65-1.38-3.68-.92-1.03-2.08-1.54-3.46-1.54-1.53,0-2.7.52-3.52,1.57-.82,1.05-1.23,2.26-1.23,3.65v20.1c0,1.57.46,2.86,1.38,3.85.92,1,2.04,1.49,3.37,1.49s2.54-.55,3.46-1.65c.92-1.1,1.38-2.33,1.38-3.7v-2.99c0-.17.08-.25.25-.25h7.3c.17,0,.25.08.25.25v2.99c0,2.41-.57,4.61-1.7,6.6-1.15,1.97-2.67,3.55-4.56,4.73-1.89,1.18-4.02,1.78-6.38,1.78Z"/>
    <path class="cls-2" d="M209,90.85l7.99-44.25c.04-.17.15-.25.31-.25h9.34c.17,0,.27.08.31.25l7.67,44.25c.02.21-.06.31-.25.31h-7.14c-.21,0-.33-.1-.35-.31l-.69-4.72h-8.77l-.69,4.72c-.02.21-.13.31-.31.31h-7.17c-.17,0-.25-.1-.25-.31ZM221.61,61.16l-2.89,18.08h6.2l-2.64-18.08-.38-2.39-.28,2.39Z"/>
    <path class="cls-2" d="M246.2,91.17h-7.3c-.17,0-.25-.1-.25-.31l.13-44.19c0-.21.08-.31.25-.31h7.23c.17,0,.25.11.25.31v15.25l10.1-15.32c.17-.17.32-.25.47-.25h7.39c.19,0,.23.08.13.25l-11.13,17.77,12.49,26.54c.1.17,0,.25-.31.25h-7.86c-.21,0-.34-.08-.38-.25l-8.71-18.93-2.23,3.52v15.35c0,.21-.08.31-.25.31Z"/>
    <path class="cls-2" d="M289.92,91.17h-20.82c-.17,0-.25-.1-.25-.31l.06-44.25c0-.17.08-.25.25-.25h20.69c.17,0,.25.11.25.31v7.2c0,.17-.08.25-.25.25h-13.21v10.06h13.21c.17,0,.25.08.25.25l.06,7.3c0,.17-.08.25-.25.25h-13.27v11.26h13.27c.17,0,.25.11.25.31v7.36c0,.17-.08.25-.25.25Z"/>
    <path class="cls-2" d="M306.84,91.8c-2.29,0-4.39-.59-6.32-1.76-1.91-1.17-3.43-2.74-4.58-4.7-1.14-1.96-1.71-4.11-1.71-6.46v-2.96c0-.23.11-.35.31-.35h7.23c.17,0,.25.12.25.35v2.96c0,1.4.47,2.62,1.41,3.63.94,1.02,2.08,1.53,3.4,1.53s2.48-.52,3.43-1.56c.94-1.04,1.42-2.24,1.42-3.6,0-1.57-1.03-2.95-3.08-4.12-.34-.21-.77-.47-1.31-.77s-1.17-.66-1.9-1.05c-.73-.4-1.45-.79-2.14-1.18-.69-.39-1.36-.76-2.01-1.12-2.35-1.38-4.09-3.12-5.24-5.2-1.14-2.09-1.71-4.43-1.71-7.03,0-2.39.59-4.55,1.76-6.48,1.17-1.91,2.71-3.42,4.61-4.54,1.9-1.12,3.96-1.68,6.18-1.68s4.38.57,6.29,1.7c1.91,1.15,3.43,2.68,4.58,4.59,1.14,1.91,1.71,4.05,1.71,6.42v5.28c0,.17-.08.25-.25.25h-7.23c-.17,0-.25-.08-.25-.25l-.06-5.28c0-1.51-.47-2.74-1.41-3.68s-2.07-1.42-3.37-1.42-2.45.5-3.4,1.51c-.94,1.01-1.41,2.2-1.41,3.59s.3,2.58.9,3.52c.6.94,1.69,1.85,3.29,2.7.17.08.56.29,1.16.63.61.34,1.28.71,2.03,1.12.74.41,1.42.78,2.03,1.1.61.33.97.52,1.1.58,2.14,1.2,3.83,2.66,5.08,4.4,1.25,1.74,1.87,3.88,1.87,6.42s-.57,4.65-1.7,6.6c-1.15,1.95-2.68,3.49-4.59,4.62-1.91,1.13-4.03,1.7-6.35,1.7Z"/>
  </g>
  <g>
    <g>
      <path class="cls-4" d="M41.88,94.79c-5.72-.14-10.91-.98-15.86-2.55-3.32-1.05-6.2-2.26-8.79-3.69-.74-.41-1.25-1.12-1.41-1.96-1.19-6.15-2.38-12.29-3.59-18.44-.17-.88-.35-1.76-.53-2.64-.37-1.78-.74-3.63-1.05-5.46-.1-.61-.37-.95-.9-1.43-1.79-1.64-2.8-3.85-2.99-6.56-.08-1.1-.06-2.04.05-2.89.3-2.3,1.63-4.14,4.05-5.63.64-.4,1.32-.73,1.97-1.06.09-.05.18-.09.28-.14-1.12-2.93-1.03-5.89.29-8.79,1.2-2.65,3.38-4.44,6.82-5.62,0-.21-.01-.42-.02-.63-.03-.85-.05-1.73.05-2.6.39-3.16,2.19-5.59,5.36-7.22,1.73-.89,3.54-1.45,5.4-2,.97-.29,4.62-1.43,7.28-2.27,1.24-.39,2.24-.71,2.64-.83,2.75-.85,5.07-2.53,7.07-5.14l.1-.13c.14-.19.29-.38.45-.55.33-.34.85-.8,1.6-.8.23,0,.46.04.7.13.95.35,1.41,1.01,1.44,2.06l.03.96c.02.86.05,1.75.12,2.6.2,2.35,1.3,4,3.38,5.04l.52.26c1.49.74,3.03,1.51,4.49,2.38,2.29,1.36,3.71,3.19,4.22,5.43.18.81.25,1.63.31,2.43.01.19.03.39.04.58,3.25,1.02,5.76,3.09,6.95,5.75,1.09,2.44,1.02,5.17-.18,7.93.07.03.14.07.21.1.63.31,1.28.63,1.9,1.01,2.8,1.73,4.31,4.41,4.49,7.98.16,3.21-1.02,5.89-3.52,7.98-.16.14-.26.32-.28.52-.11,1.22-.29,2.46-.52,3.67-.76,3.94-1.54,7.87-2.32,11.8l-1.18,5.97c-.42,2.15-.84,4.31-1.25,6.46-.18.93-.83,1.41-1.3,1.68-1.83,1.06-3.87,2-6.25,2.85-5.06,1.82-10.12,2.91-15.03,3.23l-.54.04c-1.31.09-2.66.18-4.01.18-.23,0-.46,0-.7,0Z"/>
      <path class="cls-3" d="M50.17,6.5c.14,0,.28.03.44.08.66.25.94.65.97,1.39.04,1.2.05,2.4.15,3.6.21,2.57,1.45,4.47,3.79,5.64,1.67.84,3.36,1.66,4.96,2.61,1.91,1.14,3.37,2.73,3.88,4.96.25,1.1.26,2.25.38,3.41,6.1,1.67,9.65,7.12,6.48,13.45.9.46,1.83.87,2.69,1.4,2.73,1.69,3.98,4.23,4.14,7.39.15,3.03-.97,5.47-3.26,7.38-.31.26-.51.61-.54,1.01-.11,1.21-.28,2.41-.51,3.6-1.15,5.93-2.33,11.85-3.49,17.77-.42,2.15-.84,4.31-1.25,6.47-.11.58-.49.92-.95,1.19-1.94,1.13-4.01,2.03-6.13,2.79-4.81,1.73-9.75,2.86-14.83,3.19-1.5.1-3,.21-4.49.21-.23,0-.45,0-.68,0-5.33-.13-10.56-.9-15.65-2.51-3-.95-5.9-2.12-8.66-3.63-.55-.3-.93-.84-1.05-1.46-1.19-6.15-2.38-12.29-3.59-18.44-.53-2.69-1.13-5.37-1.58-8.08-.14-.85-.55-1.32-1.12-1.85-1.77-1.62-2.58-3.72-2.75-6.07-.06-.91-.07-1.84.05-2.74.31-2.35,1.78-3.91,3.71-5.1.89-.55,1.86-.98,2.8-1.48-1.3-2.93-1.31-5.91.02-8.83,1.36-2.99,3.96-4.47,6.89-5.39,0-1.26-.12-2.49.02-3.68.39-3.13,2.22-5.25,4.96-6.66,1.68-.87,3.47-1.42,5.27-1.95,1.44-.42,8.69-2.72,9.93-3.1,3.09-.96,5.49-2.86,7.44-5.39.16-.21.32-.43.5-.62.31-.33.65-.58,1.07-.58M50.17,5.03h0c-1.16,0-1.9.78-2.14,1.03-.2.21-.37.43-.51.62l-.09.11c-1.91,2.48-4.1,4.08-6.71,4.88-.4.12-1.42.45-2.67.84-2.65.83-6.27,1.97-7.23,2.26-1.89.56-3.74,1.13-5.53,2.05-3.39,1.75-5.33,4.36-5.75,7.78-.11.93-.09,1.84-.06,2.72,0,.03,0,.06,0,.09-2.35.86-5.2,2.43-6.74,5.83-1.31,2.88-1.49,5.81-.53,8.73-.57.29-1.16.59-1.73.94-2.62,1.61-4.06,3.62-4.39,6.16-.12.89-.14,1.89-.05,3.03.2,2.91,1.29,5.28,3.22,7.05.47.43.61.63.67,1.01.3,1.84.68,3.69,1.05,5.48.18.88.36,1.76.53,2.64,1.2,6.14,2.4,12.29,3.58,18.43.2,1.06.85,1.96,1.78,2.47,2.64,1.45,5.56,2.68,8.92,3.75,5.02,1.59,10.27,2.44,16.06,2.58.24,0,.48,0,.72,0,1.37,0,2.74-.09,4.06-.18l.53-.04c4.98-.33,10.1-1.43,15.23-3.28,2.41-.87,4.5-1.82,6.37-2.91.35-.2,1.4-.81,1.66-2.18.41-2.15.83-4.31,1.25-6.46l1.17-5.93c.78-3.95,1.56-7.9,2.33-11.85.24-1.24.42-2.5.53-3.75,2.71-2.26,3.98-5.15,3.81-8.6-.19-3.82-1.82-6.7-4.83-8.56-.51-.32-1.04-.59-1.56-.85,1.03-2.74,1-5.43-.08-7.87-1.21-2.72-3.71-4.86-6.93-5.99,0-.03,0-.06,0-.09-.06-.82-.13-1.68-.32-2.54-.56-2.45-2.09-4.43-4.56-5.9-1.49-.89-3.04-1.66-4.55-2.41l-.51-.25c-1.86-.93-2.8-2.34-2.98-4.45-.07-.84-.09-1.68-.12-2.57,0-.32-.02-.64-.03-.95-.05-1.35-.69-2.26-1.92-2.72-.32-.12-.64-.18-.95-.18h0Z"/>
    </g>
    <path class="cls-3" d="M27.22,34.13c-.13-.13-.32.03-.22.17,2.55,3.72,11.4,12.93,30.73,9.14.13-.03.12-.21-.01-.23-4.03-.5-21.42.08-30.5-9.09Z"/>
    <path class="cls-3" d="M39.16,90.57c.03.31.82.86,1.12.93,1.6.4,3.73.27,5.08.08.34-.05,1.24-.87,1.26-1.21l1.17-24.26c.02-.31-.06-.62-.24-.87-2.66-3.69-6.59-4.28-9.78-.15-.21.27-.3.61-.27.95l1.65,24.54Z"/>
    <path class="cls-3" d="M70.45,59.79c-3.6-2.42-5.93,2.83-6.24,3.58-.02.06-.04.11-.05.17l-4.75,23.93c-.12.61.39,1.16,1,1.08,1.14-.16,3.63-1.77,4.46-2.33.18-.12.3-.3.35-.51l5.61-24.96c.08-.37-.07-.75-.38-.96Z"/>
    <path class="cls-3" d="M59.61,63.2c-3.1-3.2-6.33-.09-7.37,1.11-.22.26-.36.58-.39.92l-2.19,23.64c-.1,1.05.81,1.92,1.85,1.76s2.28-.44,3.26-.74c.58-.18,1.01-.67,1.11-1.27l4.16-24.02c.09-.5-.06-1.03-.42-1.4Z"/>
    <g>
      <path class="cls-1" d="M47.91,35.69c-3.53-1.17-8.16-2.07-8.2-2.08l-.56-.11-.04-.57c-.02-.34-.46-8.46,6.03-14.28,2.18-1.95,5-3.16,7.94-3.4,2.25-.18,6.02-.99,9.86-2.69.27-.12.55-.18.85-.18,1.02,0,1.89.73,2.06,1.74.05.3,1.18,7.39-4.32,14.94-3.02,4.14-12.8,6.55-13.21,6.65l-.2.05-.2-.07Z"/>
      <path class="cls-3" d="M63.79,13.11c.63,0,1.22.45,1.33,1.13h0c.05.29,1.13,7.08-4.19,14.39-2.9,3.97-12.79,6.37-12.79,6.37-3.62-1.2-8.29-2.1-8.29-2.1-.02-.33-.45-8.1,5.79-13.69,2.06-1.85,4.73-2.99,7.51-3.22,2.31-.19,6.17-1.01,10.1-2.75h0c.18-.08.37-.12.55-.12M63.79,11.64c-.39,0-.78.08-1.14.24-3.76,1.67-7.43,2.45-9.62,2.63-3.1.26-6.08,1.53-8.37,3.59-6.76,6.06-6.29,14.52-6.27,14.87l.07,1.13,1.11.22s4.62.9,8.11,2.06l.4.13.41-.1c1.07-.26,10.51-2.64,13.63-6.93,5.69-7.8,4.51-15.19,4.46-15.5-.23-1.36-1.4-2.35-2.78-2.35h0Z"/>
    </g>
    <path class="cls-3" d="M49.65,25.57c-2.87,1.91-3.76,2.77-5.64,5.41-.15.22-.46.03-.34-.21,1.38-2.76,4.07-6.98,8.1-8.21,3.75-1.15,7.24-3.53,9.38-5.21.2-.16.43.12.26.32-2.07,2.28-4.53,4.58-7.49,6.04"/>
    <path class="cls-3" d="M19.19,45.26c-.16-.16-.41.03-.28.21,3.28,4.56,14.64,15.85,39.46,11.21.17-.03.16-.27-.02-.28-5.03-.22-27.38.45-39.16-11.14Z"/>
    <path class="cls-3" d="M25.54,63.36c3.1-3.2,6.33-.09,7.37,1.11.22.26.36.58.39.92l2.19,23.64c.1,1.05-.81,1.92-1.85,1.76-1.06-.16-2.28-.44-3.26-.74-.58-.18-1.01-.67-1.11-1.27l-4.16-24.02c-.09-.5.06-1.03.42-1.4Z"/>
    <path class="cls-3" d="M14.98,60.23c3.6-2.42,5.93,2.83,6.24,3.58.02.06.04.11.05.17l4.75,23.93c.12.61-.39,1.16-1,1.08-1.14-.16-3.63-1.77-4.46-2.33-.18-.12-.3-.3-.35-.51l-5.61-24.96c-.08-.37.07-.75.38-.96Z"/>
  </g>
</svg>